# This file uses centimeters as units for non-parametric coordinates.

mtllib crystal.mtl
g default
v -0.259211 -3.792600 0.247857
v 0.233399 -4.083783 0.260174
v -0.672175 4.645865 0.154861
v 0.025518 4.588051 0.291608
v -0.554388 3.964534 -0.399341
v 0.466786 4.367080 -0.154861
v -0.233399 -4.154194 -0.260174
v 0.259211 -3.902576 -0.247857
v -0.903325 -2.954833 -0.352209
v -0.352209 -2.954833 0.903325
v 0.903325 -2.954833 0.352209
v 0.352209 -2.954833 -0.903325
v -1.187939 1.187577 -1.509877
v -1.578612 2.039650 1.212680
v 1.445772 2.729720 1.483536
v 1.578612 1.877645 -1.248682
vt 0.375000 0.000000
vt 0.625000 0.000000
vt 0.375000 0.250000
vt 0.625000 0.250000
vt 0.375000 0.500000
vt 0.625000 0.500000
vt 0.375000 0.750000
vt 0.625000 0.750000
vt 0.375000 1.000000
vt 0.625000 1.000000
vt 0.875000 0.000000
vt 0.875000 0.250000
vt 0.125000 0.000000
vt 0.125000 0.250000
vt 0.125000 0.125000
vt 0.375000 0.625000
vt 0.375000 0.125000
vt 0.625000 0.125000
vt 0.625000 0.625000
vt 0.875000 0.125000
vt 0.125000 0.187500
vt 0.375000 0.562500
vt 0.375000 0.187500
vt 0.625000 0.187500
vt 0.625000 0.562500
vt 0.875000 0.187500
vn -0.044474 0.157743 0.986478
vn -0.044474 0.157743 0.986478
vn -0.169888 0.427804 0.887762
vn -0.169888 0.427804 0.887762
vn -0.000377 0.742563 -0.669777
vn -0.000377 0.742563 -0.669777
vn -0.000377 0.742563 -0.669777
vn -0.000377 0.742563 -0.669777
vn 0.011467 0.386972 -0.922020
vn 0.011467 0.386972 -0.922020
vn -0.016684 0.117812 -0.992896
vn -0.016684 0.117812 -0.992896
vn -0.043830 -0.984039 0.172474
vn -0.043830 -0.984039 0.172474
vn -0.043830 -0.984039 0.172474
vn -0.043830 -0.984039 0.172474
vn 0.982317 0.181996 -0.043944
vn 0.982317 0.181996 -0.043944
vn 0.864188 0.502982 -0.013712
vn 0.864188 0.502982 -0.013712
vn -0.993137 0.057835 -0.101654
vn -0.993137 0.057835 -0.101654
vn -0.925374 0.267357 -0.268705
vn -0.925374 0.267357 -0.268705
vn -0.847471 -0.410483 0.336595
vn -0.847471 -0.410483 0.336595
vn -0.934295 -0.288874 0.208915
vn -0.934295 -0.288874 0.208915
vn 0.208366 -0.400297 0.892382
vn 0.208366 -0.400297 0.892382
vn 0.148685 -0.267383 0.952050
vn 0.148685 -0.267383 0.952050
vn 0.866541 -0.399512 -0.299162
vn 0.866541 -0.399512 -0.299162
vn 0.940283 -0.284426 -0.187001
vn 0.940283 -0.284426 -0.187001
vn -0.135062 -0.269936 -0.953359
vn -0.135062 -0.269936 -0.953359
vn -0.223703 -0.373524 -0.900243
vn -0.223703 -0.373524 -0.900243
s 1
g pCube1
usemtl initialShadingGroup
f 14/23/1 15/24/2 4/4/3 3/3/4
s off
f 3/3/5 4/4/6 6/6/7 5/5/8
s 2
f 5/5/9 6/6/10 16/25/11 13/22/12
s off
f 7/7/13 8/8/14 2/10/15 1/9/16
s 3
f 15/24/17 16/26/18 6/12/19 4/4/20
s 4
f 13/21/21 14/23/22 3/3/23 5/14/24
f 7/13/25 1/1/26 10/17/27 9/15/28
s 1
f 1/1/29 2/2/30 11/18/31 10/17/32
s 3
f 2/2/33 8/11/34 12/20/35 11/18/36
s 2
f 9/16/37 12/19/38 8/8/39 7/7/40
s 4
f 9/15/28 10/17/27 14/23/22 13/21/21
s 1
f 10/17/32 11/18/31 15/24/2 14/23/1
s 3
f 11/18/36 12/20/35 16/26/18 15/24/17
s 2
f 13/22/12 16/25/11 12/19/38 9/16/37
